# xmcd
# 
# Track frame offsets:
#     150
#     17400
#     38526
#     55776
# 
# Disc length: 1022
# 
# Revision: 3
# Processed by: cddbd v1.5.2PL0 Copyright (c) Steve Scherf et al.
# Submitted via: fre:ac v1.0.17
# 
DISCID=2003fc04
DTITLE=D.U.P. - ワンダー☆PARTY☆ソリューション
DYEAR=2004
DGENRE=Anime
TTITLE0=ワンダー☆PARTY☆ソリューション
TTITLE1=アメダス ココロ予報！
TTITLE2=ワンダー☆PARTY☆ソリューション (karaoke)
TTITLE3=アメダス ココロ予報！ (karaoke)
EXTD=YEAR: 2006
EXTT0=
EXTT1=
EXTT2=
EXTT3=
PLAYORDER=
